<?xml version="1.0" encoding="UTF-8"?>
<svg id="_圖層_2" data-name="圖層 2" xmlns="http://www.w3.org/2000/svg" viewBox="0 0 21.04 26.64">
  <defs>
    <style>
      .cls-1 {
        fill: #ebc48f;
      }
    </style>
  </defs>
  <g id="_圖層_1-2" data-name="圖層 1">
    <path class="cls-1" d="m14.51,7.83c.66.43,1.45.68,2.29.68,2.34,0,4.24-1.91,4.24-4.26s-1.9-4.26-4.24-4.26-4.24,1.91-4.24,4.26c0,.39.06.78.16,1.14l-2.51,1.79-3.98,2.84c-.59-.32-1.27-.5-1.99-.5-2.34,0-4.24,1.91-4.24,4.26s1.9,4.26,4.24,4.26c1.01,0,1.93-.36,2.66-.95l3.31,2.36,2.51,1.79c-.1.36-.16.74-.16,1.14,0,2.35,1.9,4.26,4.24,4.26s4.24-1.91,4.24-4.26-1.9-4.26-4.24-4.26c-.85,0-1.63.25-2.3.68l-3.6-2.57-2.49-1.77c.04-.22.06-.45.06-.68,0-.51-.1-1.01-.26-1.46l2.69-1.92,3.6-2.57Zm-6.25,7.31l2.3,1.64,3.41,2.43c-.43.39-.78.86-1.02,1.39l-2.39-1.71-3.18-2.27c.39-.43.69-.93.88-1.49Zm-.31-3.42c-.28-.51-.67-.96-1.13-1.31l3.75-2.67,2.39-1.71c.24.53.59,1,1.02,1.39l-3.41,2.44-2.61,1.86Z"/>
  </g>
</svg>