<?xml version="1.0" encoding="UTF-8"?>
<svg id="_圖層_2" data-name="圖層 2" xmlns="http://www.w3.org/2000/svg" viewBox="0 0 24.1 23.69">
  <g id="_圖層_1-2" data-name="圖層 1">
    <g>
      <path d="m5.09,12.26c.96,2.47,4.14,5.49,6.99,6.64.07-.05.2-.09.24-.17.96-2.25,1.48-1.82,3.47-1.54,1.12.15,2.21.46,3.31.75,1.37.36,1.89,1.49,1.35,2.79-.86,2.04-2.96,3.17-5.49,2.93-4.53-.43-13.41-6.3-14.77-13.06-.56-2.75.26-5.24,2.21-6.4,1.6-.96,2.92-.45,3.41,1.36.33,1.23.56,2.49.92,3.71.37,1.28-.02,2.13-1.22,2.64-.13.06-.24.16-.35.25-.02.02-.03.06-.04.09Z"/>
      <path d="m24.1,11.81c-.15.15-.39.4-.63.66-.26-.3-.68-.57-.74-.91-.4-2.16-1.23-4.12-2.63-5.81-2.02-2.45-4.63-3.83-7.76-4.28-.58-.08-1.59.1-1.42-.88.16-.91,1.05-.52,1.66-.43,5.75.86,9.99,4.77,11.32,10.44.07.32.11.65.21,1.22Z"/>
      <path d="m11.74,3.27c4.02.12,8.37,4.19,8.69,7.91.03.32-.34.68-.52,1.02-.25-.26-.66-.48-.74-.79-.96-3.88-3.4-6.14-7.32-6.86-.3-.05-.53-.46-.8-.7.29-.25.57-.49.68-.59Z"/>
      <path d="m16.97,11.69c-.1.1-.28.47-.51.49-.24.03-.68-.22-.74-.43-.59-2.12-1.95-3.34-4.09-3.78-.22-.04-.53-.48-.5-.7.03-.22.41-.53.66-.55,1.98-.19,5.2,2.81,5.17,4.97Z"/>
    </g>
  </g>
</svg>