<?xml version="1.0" encoding="UTF-8"?>
<svg id="_圖層_2" data-name="圖層 2" xmlns="http://www.w3.org/2000/svg" viewBox="0 0 31.66 31.58">
  <defs>
    <style>
      .cls-1 {
        fill: #ebc48f;
      }
    </style>
  </defs>
  <g id="_圖層_1-2" data-name="圖層 1">
    <g>
      <path class="cls-1" d="m2.11,10.69c-.56-.13-1.16.02-1.6.46-.67.67-.68,1.77,0,2.45,0,0,.02,0,.02.02,0,0,0,0,0,0l3.25,3.25,5.13-5.13-6.79-1.08s0,.02,0,.02Z"/>
      <path class="cls-1" d="m20.81,29.2s.02,0,.03,0l-1.03-6.5-5.1,5.1,3.12,3.12s.02-.01.02-.02c.04.06.08.11.13.16.67.67,1.77.67,2.45,0,.51-.51.63-1.25.38-1.87Z"/>
      <path class="cls-1" d="m15.02,17.99l-1.42-1.42c-.24-.24-.56-.36-.88-.37-.32,0-.63.12-.88.36l-2.62,2.62-.4.4c-.24.24-.36.56-.36.88,0,.32.12.63.36.88l1.42,1.42c.24.24.56.36.87.36.32,0,.63-.12.88-.36l3.02-3.02c.24-.24.36-.56.36-.88,0-.32-.12-.63-.36-.87Z"/>
      <path class="cls-1" d="m27.79,13.45h.01s3.7-11.08,3.7-11.08c.05-.12.09-.24.12-.37h0c.11-.53-.04-1.11-.46-1.52-.43-.43-1.03-.57-1.57-.44h0s-.02,0-.02,0c-.08.02-.16.05-.24.08l-10.81,3.56c-.38.08-.74.23-1.03.53l-7.67,7.67-5.52,5.52-.93.93c-.82.82-.82,2.14,0,2.96l1.27,1.27-.32.62,4.04,4.03.62-.32,1.3,1.3c.82.82,2.14.82,2.96,0l.93-.93,5.49-5.49,7.7-7.7c.19-.19.33-.41.43-.64Zm-15.4,9.69c-.69.69-1.83.7-2.52,0l-1.42-1.42c-.7-.7-.7-1.83,0-2.52l.4-.4,2.62-2.62c.7-.7,1.83-.7,2.52,0l1.42,1.42c.7.7.7,1.83,0,2.52l-3.02,3.02Zm5.4-9.35c-1.26-1.26-1.25-3.29,0-4.54,1.25-1.25,3.29-1.25,4.54,0,1.25,1.25,1.25,3.29,0,4.54-1.26,1.26-3.29,1.26-4.54,0Z"/>
    </g>
  </g>
</svg>