<?xml version="1.0" encoding="UTF-8"?>
<svg id="_圖層_2" data-name="圖層 2" xmlns="http://www.w3.org/2000/svg" viewBox="0 0 25.47 29.02">
  <defs>
    <style>
      .cls-1 {
        fill: #ebc48f;
      }
    </style>
  </defs>
  <g id="_圖層_1-2" data-name="圖層 1">
    <path class="cls-1" d="m23.94,3.37s0,0,0,0l-.72-.88c-1.29-1.58-3.21-2.48-5.25-2.48h0c-1.56,0-3.09.54-4.29,1.53l-5.57,4.57c-1.58,1.29-2.48,3.21-2.48,5.26,0,.85.16,1.69.48,2.5.06.15.03.33-.07.46-.11.13-.27.19-.44.15-.13-.03-.26-.04-.39-.04h0c-.43,0-.86.15-1.19.43l-1.52,1.25c-1.58,1.29-2.48,3.21-2.48,5.25,0,1.56.54,3.09,1.53,4.29l.73.89c1.29,1.58,3.21,2.48,5.25,2.48h0c1.56,0,3.09-.54,4.29-1.53l5.57-4.57c1.58-1.29,2.48-3.21,2.48-5.26,0-.85-.16-1.69-.48-2.5-.06-.15-.03-.33.07-.46.11-.13.27-.18.44-.15.13.03.26.04.39.04.42.01.86-.15,1.19-.43l1.52-1.25c.18-.15.35-.3.51-.47,1.27-1.28,1.97-2.98,1.97-4.79,0-1.56-.54-3.09-1.53-4.29Zm-8.23,15.8c-.18.32-.42.6-.7.84l-5.57,4.57c-.55.45-1.21.68-1.92.68-.91,0-1.77-.4-2.34-1.11l-.73-.89c-.45-.55-.68-1.21-.69-1.92,0-.91.4-1.77,1.11-2.34l1.52-1.25c.33-.27.56-.66.65-1.08.03-.17.16-.31.33-.35.17-.04.35.02.46.15l.04.05c1.29,1.58,3.21,2.48,5.26,2.49.38,0,.76-.03,1.14-.1.28-.05.54-.16.79-.34.17-.12.41-.11.57.03.16.14.2.37.09.56Zm-2.06-5.1v-.02c.07.03.13.05.16.08.09.05.18.1.26.16l.09.06s.01,0,.02.01c.15.12.23.33.17.51-.06.18-.22.32-.41.32-.1,0-.2,0-.29.02,0,0,0,0,0,0h0c-.17.03-.34.04-.51.04-.67,0-1.33-.23-1.86-.63-.15-.12-.21-.32-.15-.5.06-.18.23-.31.42-.31.1,0,.2,0,.3-.03.29-.05.59-.05.9-.01.16.02.33.06.5.11l.07.02c.08.03.14.05.21.08,0,0,.02,0,.03.01l.09.04s0,0,0,0v.02s0,0,0,0Zm6.96-4.06l-1.52,1.25c-.33.27-.56.66-.65,1.08-.04.17-.16.31-.33.35-.04,0-.07.01-.11.01-.13,0-.26-.06-.35-.16l-.04-.05c-.12-.15-.25-.29-.43-.47h0l-.1-.1c-.16-.15-.31-.29-.46-.41l-.05-.04s-.02-.01-.02-.02c-.17-.13-.31-.23-.46-.33,0,0,0,0-.01,0l-.06-.04c-.18-.12-.37-.22-.56-.32l-.04-.02s0,0,0,0h0c-.4-.2-.82-.36-1.25-.48,0,0,0,0,0,0-.98-.27-1.97-.31-2.93-.15-.28.05-.54.16-.79.34-.17.13-.41.11-.57-.03-.16-.14-.2-.37-.09-.56.18-.32.42-.61.71-.84l5.57-4.57c.55-.45,1.21-.68,1.91-.68,0,0,.01,0,.02,0,.91,0,1.76.41,2.33,1.11l.73.89c.45.55.68,1.21.68,1.91,0,.91-.4,1.77-1.11,2.34Z"/>
  </g>
</svg>