<?xml version="1.0" encoding="UTF-8"?>
<svg id="_圖層_2" data-name="圖層 2" xmlns="http://www.w3.org/2000/svg" viewBox="0 0 14.08 9.62">
  <defs>
    <style>
      .cls-1 {
        fill: #fff;
      }
    </style>
  </defs>
  <g id="_圖層_1-2" data-name="圖層 1">
    <g>
      <path class="cls-1" d="m3.86.67c0-.3-.25-.55-.55-.55h-1.43c-.3,0-.55.24-.55.55v.2h2.53v-.2Z"/>
      <path class="cls-1" d="m12.93,1.31h-3.23c-.17-.75-.84-1.31-1.65-1.31h-2.02c-.8,0-1.47.56-1.65,1.31H1.15c-.63,0-1.15.51-1.15,1.15v6.02c0,.63.51,1.15,1.15,1.15h11.78c.63,0,1.15-.51,1.15-1.15V2.46c0-.63-.51-1.15-1.15-1.15Zm-5.88,6.74c-1.43,0-2.59-1.16-2.59-2.59s1.16-2.59,2.59-2.59,2.59,1.16,2.59,2.59-1.16,2.59-2.59,2.59Zm5.33-5.53h-1.2c-.12,0-.22-.1-.22-.22s.1-.22.22-.22h1.2c.12,0,.22.1.22.22s-.1.22-.22.22Z"/>
    </g>
  </g>
</svg>