<?xml version="1.0" encoding="UTF-8"?>
<svg id="_圖層_2" data-name="圖層 2" xmlns="http://www.w3.org/2000/svg" viewBox="0 0 8.65 10.87">
  <defs>
    <style>
      .cls-1 {
        fill: #fff;
      }
    </style>
  </defs>
  <g id="_圖層_1-2" data-name="圖層 1">
    <g>
      <path class="cls-1" d="m6.75,5.82s-.06.05-.09.08c-.03.03-.06.05-.09.07-.06.05-.13.1-.19.14l-1.36,2.8-.27-1.61.4-.65s-.1.02-.15.03c-.13.02-.26.04-.39.05-.07,0-.14,0-.22,0-.28,0-.55-.03-.81-.1l.41.66-.26,1.64-1.51-2.97c-.07-.06-.14-.11-.2-.17l-.03.02C-.03,7.57,0,10.63,0,10.76v.11h8.65v-.11c-.15-3.54-1.56-4.7-1.91-4.94Z"/>
      <path class="cls-1" d="m4.39,0C2.6,0,1.14,1.46,1.14,3.25s1.46,3.25,3.25,3.25,3.25-1.46,3.25-3.25S6.18,0,4.39,0Z"/>
    </g>
  </g>
</svg>