<?xml version="1.0" encoding="UTF-8"?>
<svg id="_圖層_2" data-name="圖層 2" xmlns="http://www.w3.org/2000/svg" viewBox="0 0 11.51 11.49">
  <defs>
    <style>
      .cls-1 {
        fill: #fff;
      }
    </style>
  </defs>
  <g id="_圖層_1-2" data-name="圖層 1">
    <g>
      <path class="cls-1" d="m.54,10.08L.01,11.27c-.03.06-.01.13.03.18.03.03.07.05.11.05.02,0,.04,0,.06-.01l1.19-.52s.03-.02.05-.03l3.31-3.31-.89-.89-3.31,3.31s-.03.03-.03.05Z"/>
      <path class="cls-1" d="m6.33,1.64l-2.43,2.43c-.14-.04-.3-.06-.48-.06-.53,0-1.15.2-1.84.59-.04.02-.07.07-.08.12,0,.05.01.1.05.13l2.1,2.1h0s.89.89.89.89h0s2.26,2.26,2.26,2.26c.03.03.07.05.11.05,0,0,.01,0,.02,0,.05,0,.09-.04.12-.08.83-1.45.59-2.25.44-2.54l2.36-2.36-3.53-3.52Z"/>
      <path class="cls-1" d="m10.45,5.52c.06.05.16.05.21,0l.8-.8c.06-.06.06-.16,0-.23L7.03.05c-.06-.06-.17-.06-.23,0l-.8.8c-.06.06-.06.16,0,.23l.45.45h0s4.01,4,4.01,4Z"/>
    </g>
  </g>
</svg>