<?xml version="1.0" encoding="UTF-8"?>
<svg id="_圖層_2" data-name="圖層 2" xmlns="http://www.w3.org/2000/svg" viewBox="0 0 12.56 11.29">
  <defs>
    <style>
      .cls-1 {
        fill: #fff;
      }
    </style>
  </defs>
  <g id="_圖層_1-2" data-name="圖層 1">
    <g>
      <path class="cls-1" d="m3.25,4.76H.58C.24,4.76,0,5.03.03,5.37l-.03,5.24s0,.03,0,.05c.05.35.37.63.72.63h3.41c.33,0,.57-.26.55-.59l-.74-5.46s0,0-.01,0c-.11-.28-.38-.48-.68-.48Z"/>
      <path class="cls-1" d="m12.56,7.02c-.03-.4-.23-.69-.5-.9.2-.14.31-.34.34-.6.03-.34-.06-.88-.42-1.27-.18-.2-.51-.43-1.03-.43h-2.43c0-.35,0-.9.02-1.39.04-.71-.36-1.57-.75-2.02-.21-.24-.41-.37-.62-.4-.07,0-.13-.01-.2-.01-.45,0-.98.18-1.08.57-.05.17,0,.35.04.54.06.25.13.57.06,1.01-.13.75-1.26,2.55-1.62,2.88l.76,5.62c.5.19,1.66.62,2.27.62h3.04c.21,0,.9-.05,1.11-.63.1-.28.06-.54-.04-.77,0-.02,0-.04,0-.05,0,0,0-.01,0-.02.38-.1.63-.35.69-.73.08-.45-.06-.76-.19-.95.4-.19.61-.56.57-1.07Z"/>
    </g>
  </g>
</svg>