<?xml version="1.0" encoding="UTF-8"?>
<svg id="_圖層_2" data-name="圖層 2" xmlns="http://www.w3.org/2000/svg" viewBox="0 0 7.66 14.9">
  <defs>
    <style>
      .cls-1 {
        fill: #fff;
      }
    </style>
  </defs>
  <g id="_圖層_1-2" data-name="圖層 1">
    <g>
      <path class="cls-1" d="m7.33,0s-.05,0-.08,0c-.13.04-.26.08-.39.12-.03.01-.07.02-.1.03-.1.04-.21.08-.31.12-.02,0-.04.01-.06.02-.11.05-.22.1-.33.15-.03.01-.05.03-.08.04-.08.04-.17.09-.25.14-.02.01-.05.03-.07.04-.1.06-.19.12-.28.18-.02.01-.04.03-.05.04-.07.05-.14.11-.21.16-.02.02-.04.03-.06.05-.08.07-.16.13-.23.2l-.02.02c-.07.06-.13.13-.19.19-.02.02-.04.04-.05.06-.06.06-.12.13-.17.19l-.02.02c-.06.07-.12.14-.17.22-.01.02-.03.04-.04.06-.04.06-.08.12-.12.18,0,.01-.02.03-.03.04-.05.07-.09.14-.13.21-.01.02-.02.03-.03.05-.03.06-.06.11-.09.17,0,.02-.02.04-.03.05-.04.07-.07.14-.1.2,0,.01-.01.03-.02.04-.02.06-.05.11-.07.16,0,.02-.02.04-.02.06-.02.06-.05.12-.07.18h0c-.03.1-.06.19-.09.27h-.66c-1.5,0-2.72,1.22-2.72,2.72v2.11h7.2v-2.11c0-1.5-1.22-2.72-2.72-2.72h-.4c.87-2.29,2.84-2.91,3.28-3.02.05-.01.08-.02.09-.02h0c.12-.05.2-.17.2-.3,0-.18-.15-.33-.33-.33Zm-3.07,5.33v1.77c0,.36-.3.66-.66.66-.36,0-.66-.3-.66-.66v-1.77c0-.36.3-.66.66-.66,0,0,0,0,0,0,.36,0,.66.3.66.66Z"/>
      <path class="cls-1" d="m0,12.18c0,1.5,1.22,2.72,2.72,2.72h.8s.97,0,.97,0c1.5,0,2.72-1.22,2.72-2.72v-3.31H0v3.31Z"/>
    </g>
  </g>
</svg>